# xmcd
#
# Track frame offsets:
#	150
#	9231
#	19488
#	30154
#	40181
#	50991
#	58522
#	68297
#	80592
#	93194
#	101129
#	112001
#	124578
#	133501
#	145862
#	155751
#	169195
#	179973
#	188243
#	201613
#	210803
#	219638
#
# Disc length: 3060 seconds
# Revision: 1
# Processed by: cddbd v1.5.2PL0 Copyright (c) Steve Scherf et al.
# Submitted via: dBpowerAMP V12.0
#
DISCID=3d0bf216
DTITLE=Johnny Cash - Johnny Cash, Vol. 2: 5 Classic Albums Plus
DYEAR=1962
DGENRE=Country
TTITLE0=Blue Train
TTITLE1=There You Go
TTITLE2=Train Of Love
TTITLE3=Goodbye Little Darlin', Goodbye
TTITLE4=(I Heard That) Lonesome Whistle
TTITLE5=Come In Strainger
TTITLE6=Rock Island Line
TTITLE7=Give My Love To Rose
TTITLE8=Folsom Prison Blues
TTITLE9=The Wreck Of The Old '97
TTITLE10=He'll Understand And Say Well Done
TTITLE11=God Must Have My Fortune Laid Away
TTITLE12=I Got Shoes
TTITLE13=When I've Learned Enough To Die
TTITLE14=Let The Lower Lights Be Burning
TTITLE15=If We Never Meet Again
TTITLE16=When I Take My Vacation In Haeven
TTITLE17=Taller Than Trees
TTITLE18=I Won't Have To Cross Jordan Alone
TTITLE19=When We Reached Down His Hand For Me
TTITLE20=My God Is Real (Yes, God Is Real)
TTITLE21=These Hands
EXTD=
EXTT0=
EXTT1=
EXTT2=
EXTT3=
EXTT4=
EXTT5=
EXTT6=
EXTT7=
EXTT8=
EXTT9=
EXTT10=
EXTT11=
EXTT12=
EXTT13=
EXTT14=
EXTT15=
EXTT16=
EXTT17=
EXTT18=
EXTT19=
EXTT20=
EXTT21=
PLAYORDER=
